<?xml version="1.0" standalone="no"?>
<!DOCTYPE svg PUBLIC "-//W3C//DTD SVG 20010904//EN"
 "http://www.w3.org/TR/2001/REC-SVG-20010904/DTD/svg10.dtd">
<svg version="1.0" xmlns="http://www.w3.org/2000/svg"
 width="273.000000pt" height="273.000000pt" viewBox="0 0 273.000000 273.000000"
 preserveAspectRatio="xMidYMid meet">
<metadata>
Created by potrace 1.14, written by Peter Selinger 2001-2017
</metadata>
<g transform="translate(0.000000,273.000000) scale(0.100000,-0.100000)"
fill="#000000" stroke="none">
<path d="M1180 2600 c-11 -11 -20 -26 -20 -34 0 -20 48 -68 53 -53 3 7 6 -23
6 -65 1 -42 6 -89 11 -103 9 -24 7 -28 -12 -33 -32 -8 -32 -8 -39 45 l-6 48
-1 -47 c-2 -41 -5 -48 -23 -48 -11 0 -30 5 -42 12 -20 10 -21 10 -9 -5 8 -9
26 -17 40 -19 25 -3 27 -8 33 -58 l6 -55 1 53 c2 51 3 52 32 52 24 0 31 -5 36
-27 10 -47 14 -50 9 -8 -4 38 -2 42 25 52 17 6 30 16 30 22 0 7 -10 5 -25 -5
-30 -20 -33 -18 -41 24 -6 29 -4 32 18 32 13 0 30 -6 37 -12 11 -11 13 -10 9
2 -3 8 -19 19 -36 24 -36 10 -40 18 -34 72 3 32 10 44 28 53 17 7 24 19 24 39
0 56 -69 83 -110 42z"/>
<path d="M1187 2473 c-4 -3 -7 -16 -6 -27 0 -19 1 -19 10 3 10 24 8 36 -4 24z"/>
<path d="M1260 2190 c0 -5 5 -10 11 -10 5 0 7 5 4 10 -3 6 -8 10 -11 10 -2 0
-4 -4 -4 -10z"/>
<path d="M1296 2063 c-3 -6 -18 -14 -35 -18 -17 -4 -29 -10 -26 -15 5 -8 68 5
90 18 6 4 16 7 23 8 10 2 10 -1 1 -12 -24 -29 -146 -45 -179 -24 -13 8 -11 11
8 16 22 6 31 24 11 24 -23 0 -47 -21 -53 -47 -4 -19 -23 -40 -61 -66 -70 -48
-145 -138 -185 -222 -17 -36 -42 -73 -56 -82 -29 -19 -54 -62 -54 -95 0 -13 9
-38 20 -56 16 -26 20 -51 20 -125 1 -50 7 -117 14 -149 27 -109 107 -223 181
-253 42 -18 45 -35 46 -234 0 -203 7 -244 48 -284 29 -30 36 -32 116 -36 73
-3 85 -5 85 -21 0 -10 -12 -22 -30 -29 -16 -6 -44 -16 -60 -22 -57 -22 -96
-85 -88 -145 4 -26 5 -24 17 19 8 26 26 61 42 76 27 27 109 58 109 41 0 -5 11
-22 25 -38 38 -46 101 -57 206 -38 155 29 167 29 194 2 16 -16 25 -36 25 -56
0 -30 0 -30 55 -30 30 0 55 4 55 8 0 5 -7 29 -15 53 -23 68 -63 105 -131 124
-105 28 -109 30 -112 53 -2 12 -8 22 -13 22 -5 0 -9 46 -9 103 0 56 -8 154
-17 217 -9 63 -17 135 -18 160 l0 44 74 41 c81 45 189 137 227 195 33 50 56
172 57 310 2 261 -73 453 -205 521 -66 34 -166 52 -285 53 -77 1 -114 -3 -117
-11z m274 -33 c61 -11 117 -74 160 -177 98 -234 71 -522 -59 -633 l-46 -40
-13 48 c-20 73 -33 102 -46 102 -6 0 -31 -9 -55 -20 -24 -11 -48 -20 -55 -20
-6 0 -24 -7 -40 -15 -59 -31 -177 -50 -313 -50 -147 0 -142 3 -118 -67 8 -24
21 -71 29 -106 14 -63 14 -63 -7 -57 -29 8 -83 69 -112 127 -29 58 -55 184
-54 262 l1 58 152 -5 c83 -3 221 -2 306 2 188 10 227 24 253 93 22 56 21 64
-3 103 -53 86 -247 111 -547 70 -51 -6 -93 -9 -93 -6 2 33 141 198 195 231 28
18 39 19 77 10 68 -15 128 -12 175 11 47 23 67 48 57 73 -5 13 3 16 52 16 33
-1 79 -5 104 -10z m-220 -31 c0 -27 -109 -48 -167 -33 -42 12 -23 21 45 22 37
0 78 5 92 11 14 5 26 10 28 10 1 1 2 -4 2 -10z m36 -309 c79 -14 111 -28 134
-58 21 -26 28 -92 10 -92 -5 0 -10 8 -10 19 0 28 -38 70 -78 87 -43 18 -105
31 -181 38 -29 2 -56 7 -59 10 -9 10 121 7 184 -4z m-401 -45 c-5 -2 -26 -6
-46 -9 -84 -14 -115 -86 -56 -130 27 -20 41 -21 240 -21 232 0 315 14 337 56
15 27 -10 65 -53 84 -18 8 -26 14 -19 15 28 0 93 -42 103 -68 12 -31 4 -72
-14 -73 -6 0 -21 -3 -32 -5 -114 -27 -491 -33 -570 -9 -27 7 -52 20 -56 27
-15 23 -10 68 10 86 39 35 49 41 77 45 36 5 93 7 79 2z m80 -65 c0 -13 -6 -25
-12 -27 -16 -6 -27 21 -19 43 9 23 31 11 31 -16z m229 15 c7 -18 -2 -45 -15
-45 -5 0 -12 7 -15 15 -7 18 2 45 15 45 5 0 11 -7 15 -15z m-209 -590 c63 -25
186 -30 268 -11 38 9 70 16 72 16 2 0 -5 -22 -15 -48 -25 -66 -43 -264 -34
-393 4 -74 3 -108 -5 -113 -6 -4 -42 -10 -80 -13 -80 -7 -166 11 -176 35 -4 9
-11 96 -16 192 -12 234 -18 292 -34 324 -8 15 -11 25 -7 23 4 -2 16 -8 27 -12z
m269 -621 c3 -8 2 -12 -4 -9 -6 3 -10 10 -10 16 0 14 7 11 14 -7z"/>
</g>
</svg>
